<?xml version="1.0" encoding="iso-8859-1"?>
<!-- Generator: Adobe Illustrator 19.0.0, SVG Export Plug-In . SVG Version: 6.00 Build 0)  -->
<svg version="1.1" id="Capa_1" xmlns="http://www.w3.org/2000/svg" xmlns:xlink="http://www.w3.org/1999/xlink" x="0px" y="0px"
	 viewBox="0 0 512 512" style="enable-background:new 0 0 512 512;" xml:space="preserve">
<g>
	<path style="fill:#2FA8CC;" d="M512,17.655v370.759H0V17.655C0.028,7.916,7.916,0.028,17.655,0h476.69
		C504.084,0.028,511.972,7.916,512,17.655z"/>
	<rect x="203.034" y="388.414" style="fill:#95A5A5;" width="105.931" height="97.103"/>
	<g>
		<path style="fill:#BDC3C7;" d="M512,370.759v17.655c-0.029,9.739-7.916,17.627-17.655,17.655H17.655
			C7.916,406.04,0.029,398.153,0,388.414v-17.655H512z"/>
		<path style="fill:#BDC3C7;" d="M150.999,467.862h210.003c15.139,0,27.412,12.273,27.412,27.412V512H123.586v-16.726
			C123.586,480.135,135.859,467.862,150.999,467.862z"/>
	</g>
	<g>
		<path style="fill:#E6E7E8;" d="M141.241,203.034c-2.342,0.001-4.588-0.928-6.244-2.584c-1.656-1.656-2.585-3.902-2.584-6.244
			v-44.138c0-4.875,3.952-8.828,8.828-8.828c4.875,0,8.828,3.952,8.828,8.828v44.138c0.001,2.342-0.928,4.588-2.584,6.244
			S143.583,203.036,141.241,203.034z"/>
		<path style="fill:#E6E7E8;" d="M370.759,211.862c-2.342,0.001-4.588-0.928-6.244-2.584c-1.656-1.656-2.585-3.902-2.584-6.244
			v-44.138c0-4.875,3.952-8.828,8.828-8.828s8.828,3.952,8.828,8.828v44.138c0.001,2.342-0.928,4.588-2.584,6.244
			C375.346,210.934,373.1,211.863,370.759,211.862z"/>
	</g>
	<circle style="fill:#3F5C6C;" cx="141.241" cy="264.828" r="70.621"/>
	<circle style="fill:#E6E7E8;" cx="141.241" cy="256" r="26.483"/>
	<path style="fill:#F29C1F;" d="M176.552,312.673v13.241c-21.824,12.712-48.797,12.712-70.621,0v-13.241
		c1.514-18.036,17.258-31.497,35.31-30.19c9.101-0.126,17.942,3.04,24.894,8.916C172.608,296.581,176.428,304.383,176.552,312.673z"
		/>
	<circle style="fill:#3F5C6C;" cx="370.759" cy="264.828" r="70.621"/>
	<circle style="fill:#E6E7E8;" cx="370.759" cy="256" r="26.483"/>
	<path style="fill:#CC4B4C;" d="M406.069,312.673v13.241c-21.824,12.712-48.797,12.712-70.621,0v-13.241
		c1.514-18.036,17.258-31.497,35.31-30.19c9.101-0.126,17.942,3.04,24.894,8.916C402.125,296.581,405.945,304.383,406.069,312.673z"
		/>
	<path style="fill:#FFFFFF;" d="M450.207,79.448c0.021-4.272-3.035-7.94-7.241-8.691c-4.206-0.751-8.342,1.634-9.8,5.65
		L412.31,55.552c-1.655-1.656-3.9-2.586-6.241-2.586s-4.586,0.93-6.241,2.586l-29.069,29.069l-46.724-46.724
		c-1.655-1.656-3.9-2.586-6.241-2.586s-4.586,0.93-6.241,2.586L285.069,64.38c-3.41,3.453-3.392,9.012,0.039,12.443
		c3.432,3.432,8.99,3.449,12.443,0.039l20.242-20.241l46.724,46.724c1.655,1.656,3.9,2.586,6.241,2.586s4.586-0.93,6.241-2.586
		l29.069-29.069l14.613,14.613c-4.016,1.459-6.4,5.595-5.649,9.801c0.751,4.206,4.419,7.262,8.691,7.241h17.655
		c4.868-0.017,8.811-3.959,8.828-8.828V79.448z"/>
	<g>
		<path style="fill:#35495E;" d="M432.552,123.586c-2.342-0.001-4.588,0.928-6.244,2.584c-1.656,1.656-2.585,3.902-2.584,6.244
			v17.655c0,4.875,3.952,8.828,8.828,8.828s8.828-3.952,8.828-8.828v-17.655c0.001-2.342-0.928-4.588-2.584-6.244
			C437.139,124.514,434.893,123.585,432.552,123.586z"/>
		<path style="fill:#35495E;" d="M397.241,114.759c-2.342-0.001-4.588,0.928-6.244,2.584c-1.656,1.656-2.585,3.902-2.584,6.244
			v26.483c0,4.875,3.952,8.828,8.828,8.828c4.875,0,8.828-3.952,8.828-8.828v-26.483c0.001-2.342-0.928-4.588-2.584-6.244
			C401.829,115.687,399.583,114.757,397.241,114.759z"/>
		<path style="fill:#35495E;" d="M361.931,123.586c-2.342-0.001-4.588,0.928-6.244,2.584c-1.656,1.656-2.585,3.902-2.584,6.244
			v17.655c0,4.875,3.952,8.828,8.828,8.828s8.828-3.952,8.828-8.828v-17.655c0.001-2.342-0.928-4.588-2.584-6.244
			C366.519,124.514,364.273,123.585,361.931,123.586z"/>
		<path style="fill:#35495E;" d="M326.621,88.276c-2.342-0.001-4.588,0.928-6.244,2.584c-1.656,1.656-2.585,3.902-2.584,6.244
			v52.966c0,4.875,3.952,8.828,8.828,8.828s8.828-3.952,8.828-8.828V97.103c0.001-2.342-0.928-4.588-2.584-6.244
			C331.208,89.204,328.962,88.275,326.621,88.276z"/>
	</g>
	<path style="fill:#E6E7E8;" d="M467.862,158.897H291.31c-2.342,0.001-4.588-0.928-6.244-2.584
		c-1.656-1.656-2.585-3.902-2.584-6.244V35.31c0-4.875,3.952-8.828,8.828-8.828s8.828,3.952,8.828,8.828v105.931h167.724
		c4.875,0,8.828,3.952,8.828,8.828S472.737,158.897,467.862,158.897z"/>
	<path style="fill:#FFFFFF;" d="M220.625,43.819c-0.017-1.048-0.223-2.085-0.608-3.06l-0.013-0.022
		c-0.037-0.087-0.103-0.151-0.142-0.237c-0.392-0.855-0.922-1.639-1.567-2.323c-0.213-0.215-0.437-0.417-0.672-0.608
		c-0.557-0.49-1.174-0.906-1.836-1.238c-0.273-0.149-0.555-0.282-0.843-0.4c-0.981-0.391-2.026-0.602-3.082-0.621h-17.655
		c-4.269,0-7.926,3.055-8.686,7.255s1.594,8.343,5.591,9.84l-32.215,32.216l-29.069-29.069c-1.655-1.656-3.9-2.586-6.241-2.586
		c-2.341,0-4.586,0.93-6.241,2.586l-61.793,61.793c-2.253,2.225-3.142,5.487-2.328,8.547c0.813,3.06,3.204,5.451,6.264,6.264
		c3.061,0.813,6.322-0.076,8.547-2.329l55.552-55.551l29.069,29.069c1.655,1.656,3.9,2.586,6.241,2.586
		c2.341,0,4.586-0.93,6.241-2.586l38.511-38.511c1.458,4.016,5.594,6.4,9.8,5.649c4.206-0.751,7.262-4.418,7.241-8.69V44.138
		C220.69,44.025,220.629,43.931,220.625,43.819z"/>
	<g>
		<path style="fill:#35495E;" d="M97.103,123.586c-2.342-0.001-4.588,0.928-6.244,2.584c-1.656,1.656-2.585,3.902-2.584,6.244
			v17.655c0,4.875,3.952,8.828,8.828,8.828c4.875,0,8.828-3.952,8.828-8.828v-17.655c0.001-2.342-0.928-4.588-2.584-6.244
			C101.691,124.514,99.445,123.585,97.103,123.586z"/>
		<path style="fill:#35495E;" d="M132.414,114.759c-2.342-0.001-4.588,0.928-6.244,2.584c-1.656,1.656-2.585,3.902-2.584,6.244
			v26.483c0,4.875,3.952,8.828,8.828,8.828c4.875,0,8.828-3.952,8.828-8.828v-26.483c0.001-2.342-0.928-4.588-2.584-6.244
			C137.002,115.687,134.755,114.757,132.414,114.759z"/>
		<path style="fill:#35495E;" d="M167.724,123.586c-2.342-0.001-4.588,0.928-6.244,2.584c-1.656,1.656-2.585,3.902-2.584,6.244
			v17.655c0,4.875,3.952,8.828,8.828,8.828s8.828-3.952,8.828-8.828v-17.655c0.001-2.342-0.928-4.588-2.584-6.244
			C172.312,124.514,170.066,123.585,167.724,123.586z"/>
		<path style="fill:#35495E;" d="M203.034,88.276c-2.342-0.001-4.588,0.928-6.244,2.584c-1.656,1.656-2.585,3.902-2.584,6.244
			v52.966c0,4.875,3.952,8.828,8.828,8.828s8.828-3.952,8.828-8.828V97.103c0.001-2.342-0.928-4.588-2.584-6.244
			C207.622,89.204,205.376,88.275,203.034,88.276z"/>
	</g>
	<path style="fill:#E6E7E8;" d="M238.345,158.897H61.793c-2.342,0.001-4.588-0.928-6.244-2.584
		c-1.656-1.656-2.585-3.902-2.584-6.244V35.31c0-4.875,3.952-8.828,8.828-8.828s8.828,3.952,8.828,8.828v105.931h167.724
		c4.875,0,8.828,3.952,8.828,8.828S243.22,158.897,238.345,158.897z"/>
</g>
<g>
</g>
<g>
</g>
<g>
</g>
<g>
</g>
<g>
</g>
<g>
</g>
<g>
</g>
<g>
</g>
<g>
</g>
<g>
</g>
<g>
</g>
<g>
</g>
<g>
</g>
<g>
</g>
<g>
</g>
</svg>
