<svg height="512pt" viewBox="0 -81 512 512" width="512pt" xmlns="http://www.w3.org/2000/svg"><path d="m7.5 26.921875v295.523437c7.585938 7.585938 11.835938 11.835938 19.421875 19.421876h458.15625c7.585937-7.585938 11.835937-11.835938 19.421875-19.421876v-295.523437c-7.585938-7.585937-11.835938-11.835937-19.421875-19.421875h-458.15625c-7.585937 7.585938-11.835937 11.835938-19.421875 19.421875zm0 0" fill="#f8e868"/><path d="m37.5 322.445312v-295.523437c7.585938-7.585937 11.835938-11.835937 19.421875-19.421875h-30c-7.585937 7.585938-11.835937 11.835938-19.421875 19.421875v295.523437c7.585938 7.585938 11.835938 11.835938 19.421875 19.421876h30c-7.585937-7.585938-11.835937-11.835938-19.421875-19.421876zm0 0" fill="#e0c938"/><path d="m202.519531 278.355469h-66.605469l-28.480468-28.484375v-147.976563l28.480468-28.484375h66.605469l28.480469 28.484375v31.792969h-42.195312v-14.316406l-3.765626-3.765625h-31.648437l-3.765625 3.765625v113.023437l3.765625 3.765625h31.648437l3.765626-3.765625v-14.316406h42.195312v31.792969zm0 0" fill="#e5ebf5"/><path d="m376.085938 278.355469h-66.601563l-28.484375-28.484375v-147.976563l28.484375-28.484375h66.601563l28.480468 28.484375v31.792969h-42.191406v-14.316406l-3.765625-3.765625h-31.648437l-3.765626 3.765625v113.023437l3.765626 3.765625h31.648437l3.765625-3.765625v-14.316406h42.191406v31.792969zm0 0" fill="#e5ebf5"/><path d="m137.433594 101.894531 28.480468-28.484375h-30l-28.480468 28.484375v147.976563l28.480468 28.484375h30l-28.480468-28.484375zm0 0" fill="#cad8ea"/><path d="m311 101.894531 28.484375-28.484375h-30l-28.484375 28.484375v147.976563l28.484375 28.484375h30l-28.484375-28.484375zm0 0" fill="#cad8ea"/><path d="m276 314.367188h-15v-15h15zm-25 0h-15v-15h15zm0 0" fill="#fff"/><path d="m488.1875 0h-464.375l-23.8125 23.8125v301.742188l23.8125 23.8125h181.1875v-15h-174.972656l-15.027344-15.027344v-289.3125l15.027344-15.027344h451.945312l15.027344 15.027344v20.90625h15v-27.121094zm0 0"/><path d="m497 319.339844-15.027344 15.027344h-256.972656v15h263.1875l23.8125-23.8125v-254.621094h-15zm0 0"/><path d="m99.933594 223.683594v29.292968l32.875 32.878907h72.816406l32.875-32.878907v-42.398437h-57.195312v18.082031h-24.179688v-105.554687h24.179688v18.082031h57.195312v-42.398438l-32.875-32.878906h-72.816406l-32.875 32.875v104.898438h15v-98.683594l24.085937-24.089844h60.390625l24.089844 24.089844v21.1875h-27.195312v-9.921875l-8.160157-8.160156h-37.859375l-8.160156 8.160156v119.234375l8.160156 8.160156h37.859375l8.160157-8.160156v-9.921875h27.195312v21.1875l-24.089844 24.089844h-60.390625l-24.085937-24.089844v-23.082031zm0 0"/><path d="m312.589844 80.910156h14.695312v-15h-20.90625l-32.878906 32.875v154.191406l32.878906 32.878907h72.8125l32.875-32.878907v-42.398437h-57.191406v18.082031h-24.179688v-105.554687h24.179688v18.082031h57.191406v-42.398438l-32.875-32.878906h-31.90625v15h25.695313l24.085937 24.089844v21.1875h-27.191406v-9.921875l-8.160156-8.160156h-37.859375l-8.160157 8.160156v119.234375l8.160157 8.160156h37.859375l8.160156-8.160156v-9.921875h27.191406v21.1875l-24.085937 24.089844h-60.390625l-24.089844-24.089844v-141.765625zm0 0"/></svg>