<?xml version="1.0" encoding="UTF-8"?>
<svg xmlns="http://www.w3.org/2000/svg" xmlns:xlink="http://www.w3.org/1999/xlink" width="512" height="512" viewBox="0 0 60 52" version="1.1"><!-- Generator: Sketch 51.3 (57544) - http://www.bohemiancoding.com/sketch --><title>012 - Closed captions</title><desc>Created with Sketch.</desc><defs/><g id="Page-1" stroke="none" stroke-width="1" fill="none" fill-rule="evenodd"><g id="012---Closed-captions" fill="#000000" fill-rule="nonzero"><path d="M58.652,9.822 L30.652,0.167 C30.2306805,0.0226950993 29.7733195,0.0226950993 29.352,0.167 L1.352,9.822 C0.543673589,10.0988307 0.000476024138,10.8585841 5.52521322e-16,11.713 L5.52521322e-16,40.287 C-0.000111132372,41.1403667 0.541252874,41.8998024 1.348,42.178 L29.348,51.833 C29.5573774,51.9054839 29.7774313,51.9423285 29.999,51.942 C30.2208534,51.9418254 30.4411536,51.9049961 30.651,51.833 L58.651,42.178 C59.4581419,41.9001438 59.9999641,41.1406288 60,40.287 L60,11.713 C60.0001111,10.8596333 59.4587471,10.1001976 58.652,9.822 Z M58,40.287 L30,49.942 L2,40.287 L2,11.713 L30,2.058 L58,11.713 L58,40.287 Z" id="Shape"/><path d="M19.309,19.138 C20.6026255,19.1395874 21.8233447,19.7372197 22.618,20.758 C23.1177619,21.3928027 23.8524402,21.7991986 24.6557692,21.8852158 C25.4590982,21.971233 26.2631648,21.7295996 26.886,21.215 C28.1705545,20.1370467 28.3687635,18.2345939 27.334,16.915 C25.4026287,14.4462832 22.4434458,13.0026445 19.309,13 C13.561212,13.0648333 8.95001953,17.7690637 9,23.517 L9,28.483 C8.95001953,34.2309363 13.561212,38.9351667 19.309,39 C22.4432749,38.9975962 25.4024266,37.5543414 27.334,35.086 C28.368223,33.7662504 28.1700577,31.8642171 26.886,30.786 C26.2629118,30.2716235 25.4586829,30.0303253 24.6553412,30.1167203 C23.8519994,30.2031153 23.1174682,30.6098987 22.618,31.245 C21.823142,32.2654048 20.602454,32.8626528 19.309,32.864 C16.9240577,32.8288949 15.0175194,30.8700185 15.047,28.485 L15.047,23.517 C15.0175194,21.1319815 16.9240577,19.1731051 19.309,19.138 Z M19.309,34.862 C21.214359,34.8614789 23.0134539,33.9840606 24.187,32.483 C24.3544762,32.2685018 24.6014953,32.1307481 24.872,32.101 C25.1388607,32.0737108 25.4054961,32.1547824 25.612,32.326 C26.0635762,32.7084755 26.1316241,33.3796747 25.766,33.845 C24.2136791,35.8340534 21.832099,36.997734 19.309,37 C14.6650646,36.9368854 10.9482979,33.1270765 11,28.483 L11,23.517 C10.9482979,18.8729235 14.6650646,15.0631146 19.309,15 C21.832099,15.002266 24.2136791,16.1659466 25.766,18.155 C26.1309705,18.6201578 26.0629529,19.2906171 25.612,19.673 C25.404464,19.8465054 25.1351781,19.9279332 24.8662752,19.8984955 C24.5973724,19.8690577 24.3520818,19.7312972 24.187,19.517 C23.0134539,18.0159394 21.214359,17.1385211 19.309,17.138 C15.8202057,17.1748247 13.0192422,20.0281218 13.047,23.517 L13.047,28.483 C13.0192422,31.9718782 15.8202057,34.8251753 19.309,34.862 Z" id="Shape"/><path d="M42.309,39 C45.4432749,38.9975962 48.4024266,37.5543414 50.334,35.086 C51.368223,33.7662504 51.1700577,31.8642171 49.886,30.786 C49.2629118,30.2716235 48.4586829,30.0303253 47.6553412,30.1167203 C46.8519994,30.2031153 46.1174682,30.6098987 45.618,31.245 C44.823142,32.2654048 43.602454,32.8626528 42.309,32.864 C39.9240577,32.8288949 38.0175194,30.8700185 38.047,28.485 L38.047,23.517 C38.0175194,21.1319815 39.9240577,19.1731051 42.309,19.138 C43.6026255,19.1395874 44.8233447,19.7372197 45.618,20.758 C46.1177619,21.3928027 46.8524402,21.7991986 47.6557692,21.8852158 C48.4590982,21.971233 49.2631648,21.7295996 49.886,21.215 C51.1705545,20.1370467 51.3687635,18.2345939 50.334,16.915 C48.4026287,14.4462832 45.4434458,13.0026445 42.309,13 C36.561212,13.0648333 31.9500195,17.7690637 32,23.517 L32,28.483 C31.9500195,34.2309363 36.561212,38.9351667 42.309,39 Z M34,23.517 C33.9482979,18.8729235 37.6650646,15.0631146 42.309,15 C44.832099,15.002266 47.2136791,16.1659466 48.766,18.155 C49.1309705,18.6201578 49.0629529,19.2906171 48.612,19.673 C48.404464,19.8465054 48.1351781,19.9279332 47.8662752,19.8984955 C47.5973724,19.8690577 47.3520818,19.7312972 47.187,19.517 C46.0134539,18.0159394 44.214359,17.1385211 42.309,17.138 C38.8202057,17.1748247 36.0192422,20.0281218 36.047,23.517 L36.047,28.483 C36.0192422,31.9718782 38.8202057,34.8251753 42.309,34.862 C44.214359,34.8614789 46.0134539,33.9840606 47.187,32.483 C47.3544762,32.2685018 47.6014953,32.1307481 47.872,32.101 C48.1388607,32.0737108 48.4054961,32.1547824 48.612,32.326 C49.0635762,32.7084755 49.1316241,33.3796747 48.766,33.845 C47.2136791,35.8340534 44.832099,36.997734 42.309,37 C37.6650646,36.9368854 33.9482979,33.1270765 34,28.483 L34,23.517 Z" id="Shape"/></g></g></svg>
