<?xml version="1.0" encoding="iso-8859-1"?>
<!-- Generator: Adobe Illustrator 19.0.0, SVG Export Plug-In . SVG Version: 6.00 Build 0)  -->
<svg version="1.1" id="Capa_1" xmlns="http://www.w3.org/2000/svg" xmlns:xlink="http://www.w3.org/1999/xlink" x="0px" y="0px"
	 viewBox="0 0 512 512" style="enable-background:new 0 0 512 512;" xml:space="preserve">
<path style="fill:#FFDFB3;" d="M331,241l-21.599,15H201.7L181,241l62.401-83.401c2.999-4.2,7.8-6.299,12.599-6.299
	c4.799,0,9.6,2.098,12.599,6.299L331,241z"/>
<path style="fill:#FFC380;" d="M331,241l-21.599,15H256V151.3c4.799,0,9.6,2.098,12.599,6.299L331,241z"/>
<rect x="181" y="241" style="fill:#4DBBEB;" width="150" height="180"/>
<rect x="256" y="241" style="fill:#159CE4;" width="75" height="180"/>
<path style="fill:#E1E4FB;" d="M497,211h-20.799c-5.7-27.9-16.8-54.901-32.701-78.9l14.099-14.101c5.7-5.7,5.7-15.298,0-20.999
	L415,54.399c-5.7-5.7-15.3-5.7-21,0L379.9,68.5c-24-15.901-51-27.001-78.9-32.701V15c0-8.401-6.599-15-15-15h-60
	c-8.401,0-15,6.599-15,15v20.799c-27.9,5.7-54.901,16.8-78.9,32.701l-14.099-14.101c-5.7-5.7-15.3-5.7-21,0L54.401,97
	c-5.7,5.7-5.7,15.298,0,20.999L68.5,132.1c-15.901,24-27.001,51-32.701,78.9H15c-8.401,0-15,6.599-15,15v60c0,8.399,6.599,15,15,15
	h20.799c5.7,27.9,16.8,54.899,32.701,78.9l-14.099,14.099c-5.7,5.7-5.7,15.3,0,21L97,457.599c5.7,5.7,15.3,5.7,21,0l14.1-14.099
	c24,15.899,51,26.999,78.9,32.699V497c0,8.399,6.599,15,15,15h60c8.401,0,15-6.601,15-15v-20.801c27.9-5.7,54.901-16.8,78.9-32.699
	l14.099,14.099c5.7,5.7,15.3,5.7,21,0l42.6-42.599c5.7-5.7,5.7-15.3,0-21L443.5,379.9c15.901-24.001,27.001-51,32.701-78.9H497
	c8.401,0,15-6.601,15-15v-60C512,217.599,505.401,211,497,211z M256,391c-74.399,0-135-60.601-135-135c0-74.401,60.601-135,135-135
	s135,60.599,135,135C391,330.399,330.399,391,256,391z"/>
<path style="fill:#C5C9F7;" d="M512,226v60c0,8.399-6.599,15-15,15h-20.799c-5.7,27.9-16.8,54.899-32.701,78.9l14.099,14.099
	c5.7,5.7,5.7,15.3,0,21L415,457.599c-5.7,5.7-15.3,5.7-21,0L379.9,443.5c-24,15.899-51,26.999-78.9,32.699V497
	c0,8.399-6.599,15-15,15h-30V391c74.399,0,135-60.601,135-135c0-74.401-60.601-135-135-135V0h30c8.401,0,15,6.599,15,15v20.799
	c27.9,5.7,54.901,16.8,78.9,32.701l14.099-14.101c5.7-5.7,15.3-5.7,21,0L457.599,97c5.7,5.7,5.7,15.298,0,20.999L443.5,132.1
	c15.901,24,27.001,51,32.701,78.9H497C505.401,211,512,217.599,512,226z"/>
<g>
</g>
<g>
</g>
<g>
</g>
<g>
</g>
<g>
</g>
<g>
</g>
<g>
</g>
<g>
</g>
<g>
</g>
<g>
</g>
<g>
</g>
<g>
</g>
<g>
</g>
<g>
</g>
<g>
</g>
</svg>
