<?xml version="1.0" encoding="iso-8859-1"?>
<!-- Generator: Adobe Illustrator 19.0.0, SVG Export Plug-In . SVG Version: 6.00 Build 0)  -->
<svg version="1.1" id="Capa_1" xmlns="http://www.w3.org/2000/svg" xmlns:xlink="http://www.w3.org/1999/xlink" x="0px" y="0px"
	 viewBox="0 0 512 512" style="enable-background:new 0 0 512 512;" xml:space="preserve">
<path style="fill:#FFFDE7;" d="M457.846,379.077H54.154c-24.471,0-44.308-19.837-44.308-44.308v-256
	c0-24.471,19.837-44.308,44.308-44.308h403.692c24.471,0,44.308,19.837,44.308,44.308v256
	C502.154,359.24,482.317,379.077,457.846,379.077z"/>
<g>
	<polygon style="fill:#FB8C00;" points="326.169,167.931 235.659,147.043 256.546,237.553 280.914,213.186 308.764,241.035 
		329.65,220.148 301.801,192.298 	"/>
	<polygon style="fill:#FB8C00;" points="334.769,477.538 177.231,477.538 196.923,379.077 315.077,379.077 	"/>
</g>
<path style="fill:#FFECB3;" d="M9.846,300.308v34.462c0,24.471,19.837,44.308,44.308,44.308h403.692
	c24.471,0,44.308-19.837,44.308-44.308v-34.462H9.846z"/>
<path d="M457.846,24.615H54.154C24.293,24.615,0,48.909,0,78.769v221.538v34.462c0,29.86,24.293,54.154,54.154,54.154h130.759
	l-15.754,78.769h-51.005c-5.438,0-9.846,4.408-9.846,9.846c0,5.438,4.408,9.846,9.846,9.846h59.077h157.538h59.077
	c5.438,0,9.846-4.408,9.846-9.846c0-5.438-4.408-9.846-9.846-9.846h-51.005l-15.754-78.769h130.759
	c29.86,0,54.154-24.293,54.154-54.154v-34.462V78.769C512,48.909,487.707,24.615,457.846,24.615z M54.154,44.308h403.692
	c19.002,0,34.462,15.459,34.462,34.462v211.692H19.692v-19.692h59.077c5.438,0,9.846-4.408,9.846-9.846
	c0-5.438-4.408-9.846-9.846-9.846H19.692V78.769C19.692,59.767,35.152,44.308,54.154,44.308z M322.759,467.692H189.241
	l15.754-78.769h102.01L322.759,467.692z M492.308,334.769c0,19.002-15.459,34.462-34.462,34.462H315.077H196.923H54.154
	c-19.002,0-34.462-15.459-34.462-34.462v-24.615h472.615V334.769z"/>
<path d="M256,359.385c10.858,0,19.692-8.834,19.692-19.692c0-10.858-8.834-19.692-19.692-19.692
	c-10.858,0-19.692,8.834-19.692,19.692C236.308,350.551,245.142,359.385,256,359.385z"/>
<path d="M246.952,239.768c0.805,3.488,3.439,6.264,6.88,7.251c3.442,0.986,7.145,0.028,9.677-2.502l17.405-17.406l20.887,20.887
	c1.923,1.923,4.443,2.884,6.962,2.884c2.52,0,5.04-0.961,6.962-2.884l20.887-20.887c3.845-3.845,3.845-10.08,0-13.925
	l-20.887-20.887l17.406-17.405c2.53-2.531,3.488-6.236,2.502-9.677c-0.987-3.44-3.763-6.074-7.251-6.88l-90.51-20.887
	c-3.307-0.761-6.775,0.231-9.177,2.632c-2.4,2.4-3.395,5.868-2.632,9.177L246.952,239.768z M306.645,173.531l-11.807,11.806
	c-3.845,3.845-3.845,10.079,0,13.925l20.887,20.887l-6.962,6.962l-20.887-20.887c-1.923-1.923-4.443-2.884-6.962-2.884
	s-5.04,0.961-6.962,2.884l-11.806,11.807l-13.35-57.849L306.645,173.531z"/>
<path d="M201.547,126.857c1.923,1.923,4.443,2.884,6.962,2.884s5.04-0.961,6.962-2.884c3.845-3.845,3.845-10.08,0-13.925
	l-9.846-9.846c-3.845-3.845-10.08-3.845-13.925,0c-3.845,3.845-3.845,10.08,0,13.925L201.547,126.857z"/>
<path d="M182.35,159.279h13.924c5.438,0,9.846-4.408,9.846-9.846c0-5.438-4.408-9.846-9.846-9.846H182.35
	c-5.438,0-9.846,4.408-9.846,9.846C172.504,154.871,176.912,159.279,182.35,159.279z"/>
<path d="M201.547,172.008l-9.846,9.846c-3.845,3.845-3.845,10.08,0,13.925c1.923,1.923,4.443,2.884,6.962,2.884
	s5.04-0.961,6.962-2.884l9.846-9.846c3.845-3.845,3.845-10.08,0-13.925C211.627,168.163,205.393,168.163,201.547,172.008z"/>
<path d="M267.587,129.741c2.52,0,5.04-0.961,6.962-2.884l9.846-9.846c3.845-3.845,3.845-10.08,0-13.925
	c-3.845-3.845-10.08-3.845-13.925,0l-9.846,9.846c-3.845,3.845-3.845,10.08,0,13.925
	C262.547,128.78,265.066,129.741,267.587,129.741z"/>
<path d="M238.048,117.505c5.438,0,9.846-4.408,9.846-9.846V93.734c0-5.438-4.408-9.846-9.846-9.846
	c-5.438,0-9.846,4.408-9.846,9.846v13.924C228.202,113.097,232.61,117.505,238.048,117.505z"/>
<path d="M99.22,264.684c0.246,0.601,0.551,1.172,0.906,1.703c0.354,0.542,0.768,1.044,1.221,1.497
	c0.453,0.453,0.955,0.866,1.497,1.221c0.532,0.354,1.103,0.66,1.703,0.906c0.591,0.246,1.211,0.443,1.841,0.571
	s1.28,0.187,1.92,0.187c0.64,0,1.29-0.059,1.92-0.187c0.63-0.128,1.25-0.325,1.841-0.571c0.601-0.246,1.172-0.551,1.703-0.906
	c0.542-0.354,1.044-0.768,1.497-1.221c0.453-0.453,0.866-0.955,1.221-1.497c0.354-0.532,0.66-1.103,0.906-1.703
	c0.246-0.591,0.443-1.211,0.561-1.841c0.128-0.63,0.197-1.28,0.197-1.92c0-0.64-0.069-1.29-0.197-1.92
	c-0.118-0.63-0.315-1.25-0.561-1.851c-0.246-0.591-0.551-1.162-0.906-1.694c-0.354-0.542-0.768-1.044-1.221-1.497
	c-0.453-0.453-0.955-0.866-1.497-1.221c-0.532-0.354-1.103-0.66-1.703-0.906c-0.591-0.246-1.211-0.443-1.841-0.561
	c-1.27-0.256-2.57-0.256-3.84,0c-0.63,0.118-1.25,0.315-1.841,0.561c-0.601,0.246-1.172,0.551-1.703,0.906
	c-0.542,0.354-1.044,0.768-1.497,1.221c-0.453,0.453-0.866,0.955-1.221,1.497c-0.354,0.532-0.66,1.103-0.906,1.694
	c-0.246,0.601-0.443,1.221-0.561,1.851c-0.128,0.63-0.197,1.28-0.197,1.92s0.069,1.29,0.197,1.92
	C98.777,263.473,98.974,264.094,99.22,264.684z"/>
<g>
</g>
<g>
</g>
<g>
</g>
<g>
</g>
<g>
</g>
<g>
</g>
<g>
</g>
<g>
</g>
<g>
</g>
<g>
</g>
<g>
</g>
<g>
</g>
<g>
</g>
<g>
</g>
<g>
</g>
</svg>
