<svg id="Capa_1" enable-background="new 0 0 512 512" height="512" viewBox="0 0 512 512" width="512" xmlns="http://www.w3.org/2000/svg" xmlns:xlink="http://www.w3.org/1999/xlink"><linearGradient id="SVGID_1_" gradientUnits="userSpaceOnUse" x1="277.606" x2="233.606" y1="5.117" y2="521.117"><stop offset=".007" stop-color="#9494ff"/><stop offset=".992" stop-color="#ffe8dc" stop-opacity="0"/></linearGradient><path d="m512 258.5c0-27.631-12.504-53.535-34.347-75.837-15.199-15.518-27.854-33.295-37.513-52.751-30.889-62.217-83.554-103.196-143.336-103.196-42.483 0-81.369 20.698-111.403 55.003-19.88 22.707-44.981 40.125-72.987 51.371-67.839 27.242-112.414 73.243-112.414 125.41s44.575 98.168 112.414 125.41c28.006 11.247 53.107 28.664 72.988 51.371 30.034 34.305 68.92 55.003 111.403 55.003 59.782 0 112.447-40.979 143.336-103.196 9.659-19.456 22.314-37.233 37.513-52.751 21.842-22.303 34.346-48.206 34.346-75.837z" fill="url(#SVGID_1_)"/><path d="m426.22 462.57-55.76-153.23-5.118-14.058 11.007.123c6.887.077 11.788-6.669 9.587-13.196l-4.111-12.189c-1.793-5.316 1.137-11.066 6.492-12.74l12.277-3.838c6.574-2.055 9.151-9.985 5.04-15.512l-7.677-10.322c-3.348-4.502-2.338-10.876 2.237-14.123l10.49-7.445c5.617-3.986 5.617-12.324 0-16.31l-10.49-7.445c-4.575-3.247-5.585-9.621-2.237-14.123l7.677-10.322c4.11-5.527 1.533-13.457-5.04-15.512l-12.277-3.838c-5.355-1.674-8.285-7.424-6.492-12.74l4.111-12.189c2.201-6.526-2.7-13.272-9.587-13.195l-12.863.144c-5.61.063-10.173-4.501-10.111-10.111l.143-12.863c.077-6.887-6.669-11.788-13.195-9.587l-12.189 4.111c-5.316 1.793-11.066-1.137-12.74-6.491l-3.838-12.278c-2.055-6.574-9.985-9.15-15.512-5.04l-10.322 7.677c-4.502 3.348-10.876 2.338-14.123-2.237l-7.444-10.49c-3.986-5.617-12.324-5.617-16.311 0l-7.444 10.49c-3.247 4.575-9.621 5.585-14.123 2.237l-10.322-7.677c-5.527-4.11-13.457-1.534-15.512 5.04l-3.838 12.278c-1.674 5.354-7.425 8.284-12.74 6.491l-12.189-4.111c-6.526-2.201-13.272 2.7-13.195 9.587l.143 12.863c.063 5.61-4.501 10.174-10.111 10.111l-12.863-.144c-6.887-.077-11.788 6.669-9.587 13.195l4.111 12.189c1.793 5.316-1.137 11.066-6.492 12.74l-12.277 3.838c-6.574 2.055-9.151 9.986-5.04 15.512l7.677 10.322c3.348 4.502 2.338 10.876-2.237 14.123l-10.49 7.445c-5.617 3.986-5.617 12.324 0 16.31l10.49 7.445c4.575 3.247 5.585 9.621 2.237 14.123l-7.677 10.322c-4.11 5.527-1.533 13.457 5.04 15.512l12.277 3.838c5.355 1.674 8.285 7.425 6.492 12.74l-4.111 12.189c-2.201 6.526 2.7 13.272 9.587 13.196l11.007-.123-5.118 14.058-55.759 153.23c-1.01 2.77 1.37 5.58 4.27 5.05l47.82-8.76c1.36-.25 2.74.26 3.62 1.32l31 37.45c1.88 2.27 5.52 1.64 6.53-1.13l51.93-142.68 5.471-15.033c1.541.707 2.926 1.809 3.979 3.293l7.444 10.49c3.986 5.617 12.324 5.617 16.311 0l7.444-10.49c1.053-1.484 2.438-2.586 3.979-3.293l5.471 15.033 51.93 142.68c1.01 2.77 4.65 3.4 6.53 1.13l31-37.45c.88-1.06 2.26-1.57 3.62-1.32l47.82 8.76c2.901.53 5.281-2.28 4.271-5.05z" fill="#00c" opacity=".1"/><path d="m421.95 446.62-47.82-8.76c-1.36-.25-2.74.26-3.62 1.32l-31 37.45c-1.88 2.27-5.52 1.64-6.53-1.13l-51.93-142.68-22.59-62.07 93.24-33.94 18.76 51.53 55.76 153.23c1.01 2.77-1.37 5.58-4.27 5.05z" fill="#ff4d4d"/><path d="m367.42 288.31.1 8.77c.07 6.46-2.39 12.55-6.92 17.13-4.49 4.54-10.71 7.14-17.06 7.14-2.61 0-5.2-.42-7.69-1.26l-8.31-2.81-2.62 8.38c-3.15 10.07-12.37 16.84-22.93 16.84-5.18 0-10.12-1.64-14.3-4.74l-6.64-4.94-22.59-62.07 93.24-33.94 18.76 51.53z" fill="#ff2c2c"/><path d="m394.14 441.53-20.01-3.67c-1.35-.25-2.75.26-3.62 1.32l-12.98 15.68-42.32-116.29-28.44-78.13 36.61-13.32 26.68 73.31z" fill="#ff6c6c"/><path d="m350.06 320.43c-2.11.6-4.31.92-6.52.92-2.61 0-5.2-.42-7.69-1.26l-8.31-2.81-2.62 8.38c-1.71 5.45-5.19 9.94-9.71 12.91l-28.44-78.13 36.61-13.32z" fill="#ff4d4d"/><path d="m253.54 270.75-22.59 62.07-51.93 142.68c-1.01 2.77-4.65 3.4-6.53 1.13l-31-37.45c-.88-1.06-2.26-1.57-3.62-1.32l-47.82 8.76c-2.9.53-5.28-2.28-4.27-5.05l55.76-153.23 18.76-51.53z" fill="#ff4d4d"/><path d="m160.3 236.81 93.24 33.94-22.59 62.07-6.64 4.93c-4.18 3.11-9.12 4.75-14.3 4.75-10.56 0-19.78-6.77-22.93-16.84l-2.62-8.38-8.31 2.81c-2.49.84-5.08 1.26-7.68 1.26-6.36.01-12.58-2.6-17.07-7.14-4.53-4.58-6.99-10.67-6.92-17.13l.1-8.77-3.04.03z" fill="#ff2c2c"/><path d="m225.23 260.44-28.44 78.13-42.32 116.29-12.98-15.68c-.87-1.06-2.27-1.57-3.62-1.32l-20.01 3.67 44.08-121.1 26.68-73.31z" fill="#ff6c6c"/><path d="m225.23 260.44-28.44 78.13c-4.52-2.97-8-7.46-9.71-12.91l-2.62-8.38-8.31 2.81c-2.49.84-5.08 1.26-7.68 1.26-2.22 0-4.42-.31-6.53-.92l26.68-73.31z" fill="#ff4d4d"/><path d="m264.155 22.2 7.444 10.49c3.247 4.575 9.621 5.585 14.123 2.237l10.322-7.676c5.527-4.11 13.457-1.534 15.512 5.04l3.838 12.277c1.674 5.355 7.425 8.285 12.74 6.492l12.189-4.111c6.526-2.201 13.272 2.7 13.195 9.587l-.143 12.863c-.063 5.61 4.501 10.173 10.111 10.111l12.863-.143c6.887-.077 11.788 6.669 9.587 13.195l-4.111 12.189c-1.793 5.316 1.137 11.066 6.492 12.74l12.277 3.838c6.574 2.055 9.151 9.985 5.04 15.512l-7.677 10.322c-3.348 4.502-2.338 10.876 2.237 14.123l10.49 7.444c5.617 3.986 5.617 12.324 0 16.31l-10.49 7.444c-4.575 3.247-5.585 9.621-2.237 14.123l7.677 10.322c4.11 5.527 1.534 13.457-5.04 15.512l-12.277 3.838c-5.355 1.674-8.285 7.425-6.492 12.74l4.111 12.189c2.201 6.526-2.7 13.272-9.587 13.195l-12.863-.143c-5.61-.063-10.173 4.501-10.111 10.111l.143 12.863c.077 6.887-6.669 11.788-13.195 9.587l-12.189-4.111c-5.316-1.793-11.066 1.137-12.74 6.492l-3.838 12.277c-2.055 6.574-9.985 9.151-15.512 5.04l-10.322-7.676c-4.502-3.348-10.876-2.338-14.123 2.237l-7.444 10.49c-3.986 5.617-12.324 5.617-16.31 0l-7.444-10.49c-3.247-4.575-9.621-5.585-14.123-2.237l-10.322 7.676c-5.527 4.11-13.457 1.534-15.512-5.04l-3.838-12.277c-1.674-5.355-7.425-8.285-12.74-6.492l-12.189 4.111c-6.526 2.201-13.272-2.7-13.195-9.587l.143-12.863c.063-5.61-4.501-10.173-10.111-10.111l-12.863.143c-6.887.077-11.788-6.669-9.587-13.195l4.111-12.189c1.793-5.316-1.137-11.066-6.492-12.74l-12.277-3.838c-6.574-2.055-9.15-9.985-5.04-15.512l7.676-10.322c3.348-4.502 2.338-10.876-2.237-14.123l-10.49-7.444c-5.617-3.986-5.617-12.324 0-16.31l10.49-7.444c4.575-3.247 5.585-9.621 2.237-14.123l-7.676-10.322c-4.11-5.527-1.534-13.457 5.04-15.512l12.277-3.838c5.355-1.674 8.285-7.425 6.492-12.74l-4.111-12.189c-2.201-6.526 2.7-13.272 9.587-13.195l12.863.143c5.61.063 10.173-4.501 10.111-10.111l-.143-12.863c-.077-6.887 6.669-11.788 13.195-9.587l12.189 4.111c5.316 1.793 11.066-1.137 12.74-6.492l3.838-12.277c2.055-6.574 9.985-9.151 15.512-5.04l10.322 7.676c4.502 3.348 10.876 2.338 14.123-2.237l7.444-10.49c3.986-5.617 12.324-5.617 16.31 0z" fill="#ffab66"/><path d="m430.919 439.857-50.609-139.047c-.944-2.595-3.814-3.933-6.408-2.988-2.595.944-3.933 3.813-2.988 6.408l49.9 137.101-45.784-8.389c-3.137-.567-6.343.596-8.375 3.05l-29.68 35.854-54.226-148.983 10.312 7.67c3.894 2.894 8.975 3.727 13.586 2.229 4.615-1.499 8.234-5.159 9.683-9.79l3.838-12.277c.404-1.295 1.293-2.347 2.502-2.963 1.209-.617 2.581-.716 3.868-.283l12.189 4.111c4.593 1.549 9.684.774 13.609-2.077s6.237-7.451 6.184-12.303l-.144-12.863c-.016-1.356.505-2.632 1.464-3.591.945-.945 2.198-1.465 3.534-1.465.019 0 .038 0 .058.001l12.862.144c.056 0 .11.001.166.001 4.79-.001 9.317-2.304 12.137-6.185 2.852-3.925 3.628-9.013 2.077-13.609l-4.111-12.189c-.434-1.286-.333-2.659.283-3.868s1.668-2.098 2.962-2.502l12.279-3.838c4.631-1.448 8.29-5.068 9.79-9.683 1.499-4.614.665-9.693-2.23-13.587l-7.676-10.32c-.811-1.089-1.14-2.427-.927-3.768.212-1.339.938-2.51 2.044-3.294l10.491-7.445c3.957-2.808 6.318-7.381 6.318-12.232s-2.361-9.425-6.318-12.233l-10.491-7.443c-1.105-.785-1.832-1.956-2.044-3.295-.213-1.341.116-2.679.926-3.767l7.678-10.322c2.895-3.893 3.729-8.972 2.229-13.586s-5.159-8.234-9.791-9.683l-12.277-3.838c-1.295-.404-2.347-1.293-2.963-2.502s-.717-2.582-.283-3.868l4.111-12.189c1.551-4.598.774-9.686-2.078-13.611s-7.427-6.214-12.302-6.182l-12.862.144c-.02.001-.038.001-.058.001-1.335 0-2.589-.52-3.534-1.465-.959-.959-1.479-2.235-1.464-3.592l.144-12.862c.054-4.852-2.258-9.451-6.184-12.303-3.925-2.852-9.014-3.628-13.609-2.077l-12.189 4.111c-1.286.433-2.659.334-3.868-.283-1.209-.616-2.098-1.668-2.502-2.962l-3.838-12.279c-1.448-4.631-5.068-8.29-9.683-9.79-4.61-1.495-9.693-.665-13.587 2.23l-10.32 7.676c-1.089.81-2.426 1.14-3.768.927-1.339-.212-2.51-.938-3.294-2.044l-7.444-10.491c-.001 0-.001 0-.001 0-2.808-3.957-7.381-6.318-12.232-6.318s-9.425 2.361-12.233 6.318l-7.443 10.491c-.785 1.105-1.956 1.832-3.295 2.044-1.345.213-2.679-.117-3.767-.926l-10.322-7.678c-3.895-2.896-8.977-3.727-13.586-2.229-4.614 1.5-8.234 5.159-9.683 9.791l-3.838 12.277c-.404 1.295-1.293 2.347-2.502 2.963-1.211.616-2.582.715-3.868.283l-12.189-4.111c-4.595-1.551-9.685-.775-13.609 2.077-3.926 2.852-6.237 7.451-6.184 12.303l.144 12.862c.016 1.356-.505 2.633-1.464 3.592-.945.945-2.199 1.465-3.534 1.465-.019 0-.038 0-.058-.001l-12.862-.144c-.056 0-.111-.001-.167-.001-4.789 0-9.315 2.303-12.135 6.183-2.853 3.926-3.629 9.014-2.078 13.611l4.111 12.189c.434 1.286.333 2.659-.283 3.868s-1.668 2.098-2.962 2.502l-12.279 3.838c-4.631 1.448-8.29 5.068-9.79 9.683-1.499 4.614-.665 9.693 2.23 13.587l7.676 10.32c.811 1.089 1.14 2.427.927 3.768-.212 1.339-.938 2.51-2.044 3.294l-10.491 7.445c-3.957 2.808-6.318 7.381-6.318 12.232s2.361 9.425 6.318 12.233l10.491 7.443c1.105.785 1.832 1.956 2.044 3.295.213 1.341-.116 2.679-.926 3.767l-7.678 10.322c-2.895 3.893-3.729 8.972-2.229 13.586s5.159 8.234 9.791 9.683l12.277 3.838c1.295.404 2.347 1.293 2.963 2.502s.717 2.582.283 3.868l-4.111 12.189c-1.551 4.597-.774 9.685 2.077 13.609 2.852 3.926 7.432 6.225 12.303 6.184l3.79-.042-48.16 132.313c-.944 2.595.394 5.464 2.988 6.408 2.593.947 5.464-.394 6.408-2.988l49.353-135.596c.771.236 1.486.636 2.073 1.224.959.959 1.479 2.234 1.464 3.591l-.144 12.863c-.054 4.852 2.258 9.451 6.184 12.303 3.925 2.852 9.014 3.629 13.609 2.077l12.189-4.111c1.287-.432 2.66-.333 3.868.283 1.209.616 2.098 1.668 2.502 2.963l3.838 12.277c1.448 4.631 5.067 8.291 9.683 9.79 4.614 1.501 9.693.667 13.587-2.229l10.311-7.669-54.226 148.983-29.681-35.855c-2.031-2.453-5.241-3.624-8.377-3.048l-46.189 8.462c-.065-1.98-1.313-3.816-3.289-4.536-2.593-.944-5.463.393-6.408 2.988-1.078 2.96-.484 6.295 1.549 8.701 2.064 2.444 5.172 3.558 8.321 2.981l47.135-8.635 30.558 36.914c1.705 2.059 4.15 3.196 6.747 3.196.511 0 1.027-.044 1.545-.134 3.151-.545 5.686-2.665 6.778-5.67l54.701-150.29 5.353 7.542c2.808 3.957 7.381 6.318 12.232 6.318s9.425-2.361 12.233-6.318l5.351-7.543 54.701 150.29c1.093 3.005 3.627 5.125 6.778 5.67.519.09 1.034.134 1.545.134 2.597 0 5.042-1.138 6.748-3.197l30.557-36.913 47.135 8.635c3.146.575 6.256-.537 8.321-2.981 2.034-2.405 2.628-5.74 1.55-8.7zm-163.398-121.671-7.443 10.491c-.95 1.338-2.437 2.105-4.078 2.105s-3.128-.768-4.077-2.105l-7.445-10.491c-2.355-3.319-5.865-5.497-9.885-6.134-.798-.127-1.594-.188-2.385-.188-3.197 0-6.296 1.021-8.915 2.968l-10.32 7.676c-1.317.98-2.967 1.249-4.529.744-1.562-.508-2.738-1.697-3.228-3.265l-3.838-12.277c-1.215-3.884-3.88-7.041-7.507-8.889-3.625-1.847-7.747-2.148-11.604-.848l-12.189 4.111c-1.558.523-3.209.272-4.537-.693s-2.079-2.459-2.061-4.101l.144-12.863c.045-4.069-1.515-7.896-4.393-10.773-2.837-2.837-6.597-4.394-10.603-4.394-.057 0-.114.001-.172.001l-12.862.144c-.02.001-.038.001-.058.001-1.619 0-3.09-.75-4.043-2.062-.965-1.328-1.218-2.981-.693-4.537l4.111-12.189c1.302-3.856 1-7.978-.848-11.604-1.848-3.627-5.005-6.292-8.889-7.507l-12.278-3.838c-1.566-.489-2.756-1.666-3.264-3.228-.507-1.561-.236-3.212.743-4.528l7.678-10.322c2.429-3.266 3.415-7.278 2.778-11.299-.637-4.02-2.814-7.529-6.134-9.886l-10.491-7.443c-1.338-.95-2.105-2.437-2.105-4.078s.768-3.128 2.105-4.077l10.491-7.445c3.319-2.355 5.497-5.865 6.134-9.885.637-4.021-.35-8.033-2.779-11.3l-7.676-10.32c-.98-1.317-1.251-2.969-.744-4.529.508-1.562 1.697-2.738 3.263-3.228l12.279-3.838c3.884-1.215 7.041-3.88 8.889-7.507 1.848-3.626 2.149-7.747.848-11.604l-4.111-12.189c-.524-1.556-.271-3.21.693-4.537.953-1.313 2.424-2.062 4.042-2.062.02 0 .039 0 .059.001l12.862.144c.058 0 .115.001.173.001 4.005 0 7.765-1.557 10.602-4.394 2.878-2.878 4.438-6.704 4.393-10.774l-.144-12.862c-.019-1.642.732-3.136 2.061-4.101s2.979-1.215 4.537-.693l12.189 4.111c3.855 1.302 7.978.999 11.604-.848 3.627-1.848 6.292-5.005 7.507-8.889l3.838-12.278c.489-1.566 1.666-2.756 3.228-3.264 1.559-.507 3.212-.236 4.528.743l10.322 7.678c3.265 2.429 7.276 3.415 11.299 2.778 4.02-.637 7.529-2.814 9.886-6.134l7.443-10.491c.95-1.338 2.437-2.105 4.078-2.105s3.128.768 4.077 2.105l7.445 10.491c2.355 3.319 5.865 5.497 9.885 6.134 4.022.643 8.033-.35 11.3-2.779l10.32-7.676c1.318-.981 2.973-1.248 4.529-.744 1.562.508 2.738 1.697 3.228 3.263l3.838 12.279c1.215 3.884 3.88 7.041 7.507 8.889 3.626 1.847 7.749 2.15 11.604.848l12.189-4.111c1.559-.521 3.21-.271 4.537.693 1.328.965 2.079 2.459 2.061 4.101l-.144 12.862c-.045 4.07 1.515 7.896 4.393 10.774 2.838 2.837 6.597 4.394 10.603 4.394.057 0 .114-.001.172-.001l12.862-.144c1.664-.031 3.136.732 4.101 2.061.965 1.327 1.218 2.981.693 4.537l-4.111 12.189c-1.302 3.856-1 7.978.848 11.604 1.848 3.627 5.005 6.292 8.889 7.507l12.278 3.838c1.566.489 2.756 1.666 3.264 3.228.507 1.561.236 3.212-.743 4.528l-7.678 10.322c-2.429 3.266-3.415 7.278-2.778 11.299.637 4.02 2.814 7.529 6.134 9.886l10.491 7.443c1.338.95 2.105 2.437 2.105 4.078s-.768 3.128-2.105 4.077l-10.491 7.445c-3.319 2.355-5.497 5.865-6.134 9.885-.637 4.021.35 8.033 2.779 11.3l7.676 10.32c.98 1.317 1.251 2.969.744 4.529-.508 1.562-1.697 2.738-3.263 3.228l-12.279 3.838c-3.884 1.215-7.041 3.88-8.889 7.507-1.848 3.626-2.149 7.747-.848 11.604l4.111 12.189c.524 1.556.271 3.209-.693 4.537s-2.478 2.126-4.101 2.061l-12.862-.144c-4.049-.017-7.896 1.515-10.774 4.393s-4.438 6.704-4.393 10.773l.144 12.863c.019 1.642-.732 3.136-2.061 4.101-1.328.966-2.979 1.217-4.537.693l-12.189-4.111c-3.855-1.302-7.978-.999-11.604.848-3.627 1.848-6.292 5.005-7.507 8.889l-3.838 12.277c-.489 1.567-1.666 2.757-3.228 3.265-1.562.506-3.212.237-4.528-.743l-10.322-7.678c-3.265-2.429-7.276-3.414-11.299-2.778-4.02.636-7.53 2.814-9.887 6.133z" fill="#00c"/><circle cx="256" cy="176.885" fill="#ff7300" r="121.648"/><path d="m256 283.26c-58.655 0-106.375-47.72-106.375-106.375s47.72-106.374 106.375-106.374 106.375 47.72 106.375 106.375-47.72 106.374-106.375 106.374zm0-202.749c-53.142 0-96.375 43.233-96.375 96.375s43.233 96.374 96.375 96.374 96.375-43.233 96.375-96.375-43.233-96.374-96.375-96.374z" fill="#ffc599"/><g fill="#fff"><path d="m256 231.401c-1.408 0-2.751-.594-3.698-1.636l-51.654-56.78c-1.6-1.758-1.74-4.397-.338-6.315l13.952-19.078c.941-1.288 2.441-2.049 4.036-2.049h75.404c1.595 0 3.095.761 4.036 2.049l13.952 19.078c1.402 1.918 1.262 4.558-.338 6.315l-51.654 56.78c-.947 1.042-2.29 1.636-3.698 1.636zm-45.208-62.125 45.208 49.694 45.208-49.694-10.044-13.733h-70.328z"/><path d="m256 231.401c-2.198 0-4.139-1.436-4.781-3.537l-17.369-56.78c-.264-.863-.289-1.781-.074-2.657l4.691-19.078c.55-2.234 2.554-3.806 4.855-3.806h25.355c2.302 0 4.306 1.571 4.855 3.806l4.691 19.078c.215.876.189 1.794-.074 2.657l-17.369 56.78c-.641 2.102-2.582 3.537-4.78 3.537zm-12.185-61.925 12.185 39.832 12.185-39.832-3.427-13.934h-17.516z"/><path d="m307.654 174.621h-103.308c-2.762 0-5-2.238-5-5s2.238-5 5-5h103.309c2.762 0 5 2.238 5 5s-2.239 5-5.001 5z"/><path d="m262.25 257.905h-12.5c-2.762 0-5-2.239-5-5s2.238-5 5-5h12.5c2.762 0 5 2.239 5 5s-2.238 5-5 5z"/><path d="m256 130.928c-2.762 0-5-2.238-5-5v-25.062h-.444c-2.762 0-5-2.238-5-5s2.238-5 5-5h5.444c2.762 0 5 2.238 5 5v30.062c0 2.762-2.238 5-5 5z"/></g><path d="m64.276 274.033c-1.279 0-2.56-.488-3.535-1.465l-6.465-6.464-6.465 6.464c-1.951 1.953-5.119 1.953-7.07 0-1.953-1.952-1.953-5.118 0-7.07l10-10c1.951-1.953 5.119-1.953 7.07 0l10 10c1.953 1.952 1.953 5.118 0 7.07-.975.977-2.255 1.465-3.535 1.465z" fill="#ff9d33"/><path d="m467.724 223.393c-1.279 0-2.56-.488-3.535-1.465l-6.465-6.464-6.465 6.464c-1.951 1.953-5.119 1.953-7.07 0-1.953-1.952-1.953-5.118 0-7.07l10-10c1.951-1.953 5.119-1.953 7.07 0l10 10c1.953 1.952 1.953 5.118 0 7.07-.976.977-2.256 1.465-3.535 1.465z" fill="#6c6cff"/><path d="m441 284.033c-1.279 0-2.56-.488-3.535-1.465l-6.465-6.464-6.465 6.464c-1.951 1.953-5.119 1.953-7.07 0-1.953-1.952-1.953-5.118 0-7.07l10-10c1.951-1.953 5.119-1.953 7.07 0l10 10c1.953 1.952 1.953 5.118 0 7.07-.975.977-2.256 1.465-3.535 1.465z" fill="#ff6c6c"/><path d="m85.544 329.533c-1.279 0-2.56-.488-3.535-1.465-1.953-1.952-1.953-5.118 0-7.07l10-10c1.951-1.953 5.119-1.953 7.07 0 1.953 1.952 1.953 5.118 0 7.07l-10 10c-.975.977-2.256 1.465-3.535 1.465z" fill="#6c6cff"/><path d="m72.553 104.569c-1.279 0-2.56-.488-3.535-1.465-1.953-1.952-1.953-5.118 0-7.07l10-10c1.951-1.953 5.119-1.953 7.07 0 1.953 1.952 1.953 5.118 0 7.07l-10 10c-.976.977-2.256 1.465-3.535 1.465z" fill="#ff6c6c"/></svg>