<?xml version="1.0" encoding="iso-8859-1"?>
<!-- Generator: Adobe Illustrator 19.0.0, SVG Export Plug-In . SVG Version: 6.00 Build 0)  -->
<svg version="1.1" id="Capa_1" xmlns="http://www.w3.org/2000/svg" xmlns:xlink="http://www.w3.org/1999/xlink" x="0px" y="0px"
	 viewBox="0 0 512.001 512.001" style="enable-background:new 0 0 512.001 512.001;" xml:space="preserve">
<circle style="fill:#FF5D5D;" cx="193.497" cy="194.708" r="183.488"/>
<polyline style="fill:#FEE4BB;" points="338.537,307.128 412.443,380.717 381.535,411.993 307.629,338.403 "/>
<path style="fill:#FDCF84;" d="M489.488,488.263c-8.339,8.339-19.277,12.518-30.205,12.518c-10.907,0-21.805-4.149-30.134-12.446
	l-62.478-61.296l14.863-15.046l30.908-31.275l14.261-14.434l62.712,61.52C506.156,444.471,506.186,471.566,489.488,488.263z"/>
<path style="fill:#BBECFF;" d="M323.839,222.001c-12.316,60.715-65.991,106.409-130.34,106.409h-0.888
	c-9.126-0.062-18.025-1.043-26.625-2.86v-36.309l-35.328-40.635L110.01,206.65l-49.524-11.253
	c0-73.156,59.074-132.519,132.127-132.994c0.289-0.01,0.589-0.01,0.888-0.01c29.733,0,57.184,9.756,79.34,26.244v53.561
	l-38.943,64.453l20.648,41.296L323.839,222.001z"/>
<g>
	<path style="fill:#A0E557;" d="M151.304,124.057L151.304,124.057c11.403,0,20.648,9.244,20.648,20.648l0,0
		c0,11.403-9.244,20.648-20.648,20.648l0,0c-11.403,0-20.648-9.244-20.648-20.648l0,0
		C130.656,133.301,139.901,124.057,151.304,124.057z"/>
	<path style="fill:#A0E557;" d="M326.502,195.396c0,9.105-0.919,18.005-2.663,26.605l-69.294,25.944l-20.648-41.296l38.943-64.453
		V88.636C305.41,112.887,326.502,151.674,326.502,195.396z"/>
	<path style="fill:#A0E557;" d="M165.985,289.241v36.309c-60.261-12.668-105.5-66.125-105.5-130.154l49.524,11.253l20.648,41.956
		L165.985,289.241z"/>
</g>
<path d="M496.427,420.658l-62.713-61.52c-3.937-3.862-10.255-3.812-14.13,0.11l-7.2,7.287l-60.729-60.469
	c22.252-31.511,35.342-69.932,35.342-111.356c0-106.697-86.803-193.499-193.499-193.499S0,88.014,0,194.71
	s86.803,193.499,193.499,193.499c42.222,0,81.321-13.602,113.166-36.643l60.745,60.484l-7.858,7.953
	c-1.87,1.893-2.909,4.451-2.888,7.112c0.021,2.66,1.1,5.203,2.999,7.067l62.424,61.242c9.945,9.908,23.155,15.365,37.198,15.365
	c14.079,0,27.319-5.486,37.282-15.449l0,0c9.967-9.968,15.449-23.224,15.434-37.325C511.985,443.91,506.473,430.662,496.427,420.658
	z M20.018,194.71c0-95.657,77.823-173.481,173.481-173.481S366.979,99.053,366.979,194.71s-77.823,173.481-173.481,173.481
	S20.018,290.368,20.018,194.71z M322.349,338.935c5.956-5.327,11.584-11.013,16.843-17.03l59.122,58.869l-16.835,17.038
	L322.349,338.935z M482.411,481.186c-6.182,6.182-14.395,9.586-23.127,9.586c-8.709,0-16.902-3.384-23.123-9.582l-55.31-54.263
	l45.964-46.515l55.54,54.483c6.199,6.173,9.618,14.391,9.628,23.141C491.992,466.784,488.592,475.005,482.411,481.186z"/>
<path d="M333.402,222.832c1.764-9.018,2.669-18.274,2.669-27.669c0-38.098-14.837-73.916-41.775-100.855
	c-4.36-4.36-8.978-8.404-13.815-12.125c-0.991-1.171-2.243-2.113-3.67-2.73c-26.1-18.78-58.079-28.384-90.599-26.737
	c-5.521,0.278-9.771,4.981-9.492,10.501c0.279,5.52,4.972,9.771,10.501,9.492c27.025-1.371,53.605,6.291,75.608,21.377v45.324
	l-37.5,62.064c-1.775,2.94-1.921,6.582-0.385,9.653l20.648,41.297c1.742,3.482,5.264,5.535,8.955,5.535
	c1.206,0,2.43-0.219,3.615-0.68l50.311-19.509c-6.054,16.371-15.621,31.384-28.333,44.094c-23.158,23.159-53.948,35.913-86.7,35.913
	c-5.889,0-11.714-0.419-17.443-1.23v-27.304c0-2.413-0.872-4.745-2.456-6.568l-34.48-39.656l-20.074-40.788
	c-1.333-2.709-3.818-4.671-6.763-5.341l-41.456-9.417c1.71-29.892,14.122-57.716,35.429-79.022c3.909-3.909,3.91-10.246,0-14.156
	c-3.909-3.907-10.246-3.908-14.155,0c-26.697,26.697-41.408,62.169-41.498,99.97c-0.092,0.794-0.078,1.578,0.015,2.345
	c0.512,37.526,15.396,72.781,42.023,99.409c19.036,19.036,42.509,32.019,68.083,38.004c1.542,0.971,3.363,1.542,5.32,1.542
	c0.508,0,1.004-0.05,1.491-0.123c8.479,1.55,17.158,2.353,25.961,2.353c38.098,0,73.916-14.836,100.855-41.775
	c20.119-20.119,33.485-45.192,38.965-72.467C333.318,223.314,333.362,223.073,333.402,222.832z M71.293,208.119l31.842,7.234
	l18.54,37.671c0.381,0.774,0.861,1.495,1.427,2.148l32.877,37.813v18.983c-18.373-5.87-35.208-16.074-49.239-30.105
	C86.639,261.761,74.314,235.947,71.293,208.119z M259.422,235.319l-14.107-28.214l36.091-59.732
	c0.943-1.562,1.442-3.352,1.442-5.177v-30.932c21.44,22.812,33.205,52.449,33.205,83.898c0,6.337-0.483,12.599-1.42,18.747
	L259.422,235.319z"/>
<path d="M151.304,175.363c16.904,0,30.657-13.753,30.657-30.657c0-16.905-13.753-30.658-30.657-30.658s-30.657,13.753-30.657,30.658
	C120.647,161.609,134.4,175.363,151.304,175.363z M151.304,134.066c5.866,0,10.639,4.773,10.639,10.64
	c0,5.865-4.773,10.639-10.639,10.639s-10.639-4.773-10.639-10.639C140.666,138.838,145.438,134.066,151.304,134.066z"/>
<path d="M182.844,206.334h0.206c5.528,0,10.009-4.482,10.009-10.009c0-5.527-4.481-10.009-10.009-10.009h-0.206
	c-5.528,0-10.009,4.482-10.009,10.009C172.835,201.852,177.316,206.334,182.844,206.334z"/>
<path d="M134.014,78.864c1.957,1.97,4.528,2.955,7.1,2.955c2.55,0,5.103-0.969,7.054-2.909c3.921-3.897,3.942-10.234,0.045-14.155
	l-0.076-0.076c-3.898-3.924-10.234-3.943-14.155-0.046c-3.922,3.897-3.942,10.234-0.045,14.155L134.014,78.864z"/>
<g>
</g>
<g>
</g>
<g>
</g>
<g>
</g>
<g>
</g>
<g>
</g>
<g>
</g>
<g>
</g>
<g>
</g>
<g>
</g>
<g>
</g>
<g>
</g>
<g>
</g>
<g>
</g>
<g>
</g>
</svg>
