<?xml version="1.0"?>
<svg xmlns="http://www.w3.org/2000/svg" id="subtitles" enable-background="new 0 0 300 300" height="512px" viewBox="0 0 300 300" width="512px" class="hovered-paths"><g><path d="m230 234h-160c-22.055 0-40-17.945-40-40v-88c0-22.055 17.945-40 40-40h160c22.055 0 40 17.945 40 40v88c0 22.055-17.945 40-40 40zm-160-152c-13.234 0-24 10.766-24 24v88c0 13.234 10.766 24 24 24h160c13.234 0 24-10.766 24-24v-88c0-13.234-10.766-24-24-24z" data-original="#000000" class="hovered-path active-path" style="fill:#FFFFFF" data-old_color="#000000"/><g fill="#af16ef"><path d="m142 194h-24.664c-17.281 0-31.336-14.055-31.336-31.336v-25.328c0-17.281 14.055-31.336 31.336-31.336h24.664v16h-24.664c-8.453 0-15.336 6.883-15.336 15.336v25.328c0 8.453 6.883 15.336 15.336 15.336h24.664z" data-original="#AF16EF" class="" style="fill:#FFFFFF" data-old_color="#AF16EF"/><path d="m214 194h-24.664c-17.281 0-31.336-14.055-31.336-31.336v-25.328c0-17.281 14.055-31.336 31.336-31.336h24.664v16h-24.664c-8.453 0-15.336 6.883-15.336 15.336v25.328c0 8.453 6.883 15.336 15.336 15.336h24.664z" data-original="#AF16EF" class="" style="fill:#FFFFFF" data-old_color="#AF16EF"/></g></g> </svg>
