<svg id="Capa_1" enable-background="new 0 0 512 512" height="512" viewBox="0 0 512 512" width="512" xmlns="http://www.w3.org/2000/svg"><g><path d="m256 0h-231.226c-2.896 0-5.676.497-8.26 1.41l-9.288 23.364v224.226c0 13.682 11.092 24.774 24.774 24.774h248.774v-249c0-13.682-11.092-24.774-24.774-24.774z" fill="#faf5dc"/><path d="m66.065 264.258c-27.365 0-49.548-22.184-49.548-49.548v-213.294c-9.601 3.412-16.517 12.587-16.517 23.358v231.226c0 13.682 11.092 24.774 24.774 24.774h231.226c10.771 0 19.844-6.916 23.257-16.516z" fill="#f5ebcd"/><path d="m487.226 231.226h-231.226c-2.896 0-5.676.497-8.26 1.41l-9.33 23.364v222.892c0 13.682 11.092 24.774 24.774 24.774h224.041l23.365-8.184c.913-2.583 1.409-5.362 1.409-8.257v-231.225c.001-13.682-11.091-24.774-24.773-24.774z" fill="#b3e59f"/><path d="m438.016 443.016-55.395-146.774c-1.798-4.379-6.016-7.21-10.75-7.21-.008 0-.008 0-.016 0-4.742.008-8.96 2.847-10.823 7.419l-55.814 146.549c-1.621 4.258.516 9.032 4.782 10.653 4.25 1.621 9.024-.516 10.653-4.782l11.874-31.177h78.278l11.759 31.161c1.25 3.306 4.387 5.339 7.726 5.339.968 0 1.96-.169 2.919-.532 4.267-1.614 6.42-6.372 4.807-10.646zm-99.198-41.839 33.029-86.726 32.726 86.726z" fill="#fff"/><path d="m127.22 407.989c-18.095-7.489-28.123-25.09-28.123-44.635v-49.548c0-4.565-3.693-8.258-8.258-8.258s-8.258 3.694-8.258 8.258v49.548c0 26.107 15.395 48.745 37.43 59.466 1.714-5.294 3.96-10.317 7.209-14.831z" fill="#faf5dc"/><path d="m297.29 495.484c-27.365 0-49.548-22.184-49.548-49.548v-213.295c-9.6 3.413-16.516 12.588-16.516 23.359v231.226c0 13.682 11.092 24.774 24.774 24.774h231.226c10.771 0 19.956-6.916 23.368-16.516z" fill="#95d6a4"/><path d="m214.71 74.323h-66.065v-8.258c0-4.565-3.694-8.258-8.258-8.258s-8.258 3.694-8.258 8.258v8.258h-66.064c-4.565 0-8.258 3.694-8.258 8.258 0 4.565 3.694 8.258 8.258 8.258h18.332c3.877 14.087 15.738 48.506 44.752 82.825-11.651 12.069-25.585 23.78-42.559 33.965-3.911 2.347-5.177 7.419-2.831 11.331 1.548 2.581 4.282 4.008 7.089 4.008 1.444 0 2.911-.379 4.242-1.177 18.036-10.822 32.867-23.134 45.298-35.809 12.431 12.676 27.262 24.988 45.298 35.809 1.331.798 2.798 1.177 4.242 1.177 2.806 0 5.54-1.427 7.089-4.008 2.347-3.911 1.081-8.984-2.831-11.331-16.975-10.185-30.908-21.896-42.559-33.965 29.013-34.32 40.874-68.738 44.752-82.825h18.332c4.565 0 8.258-3.694 8.258-8.258-.001-4.565-3.695-8.258-8.259-8.258zm-74.323 86.773c-23.071-28.07-34.148-55.954-38.684-70.258h77.369c-4.537 14.304-15.614 42.189-38.685 70.258z" fill="#ff8086"/><path d="m170.113 389.782c-3.645-2.734-8.815-2-11.556 1.653-2.742 3.645-2 8.823 1.653 11.556l13.211 9.911h-24.775c-7.679 0-14.942-1.771-21.425-4.914-5.381-2.609-11.607 1.528-11.607 7.508 0 3.064 1.641 5.986 4.398 7.324 8.668 4.207 18.369 6.599 28.634 6.599h24.775l-13.211 9.911c-3.653 2.734-4.395 7.911-1.653 11.556 1.621 2.169 4.097 3.306 6.613 3.306 1.726 0 3.46-.54 4.944-1.653l33.032-24.774c2.081-1.556 3.306-4.008 3.306-6.605s-1.226-5.048-3.306-6.605z" fill="#f5ebcd"/><path d="m384.78 104.011c18.095 7.489 28.123 25.09 28.123 44.635v49.548c0 4.565 3.693 8.258 8.258 8.258s8.258-3.694 8.258-8.258v-49.548c0-26.107-15.395-48.745-37.43-59.466-1.714 5.294-3.96 10.317-7.209 14.831z" fill="#faf5dc"/><path d="m341.887 122.218c3.645 2.734 8.815 2 11.556-1.653 2.742-3.645 2-8.823-1.653-11.556l-13.211-9.911h24.775c7.679 0 14.942 1.771 21.425 4.914 5.381 2.609 11.607-1.528 11.607-7.508 0-3.064-1.641-5.986-4.398-7.324-8.668-4.207-18.369-6.599-28.634-6.599h-24.774l13.211-9.911c3.653-2.734 4.395-7.911 1.653-11.556-1.621-2.169-4.097-3.306-6.613-3.306-1.726 0-3.46.54-4.944 1.653l-33.032 24.774c-2.081 1.556-3.306 4.008-3.306 6.605s1.226 5.048 3.306 6.605z" fill="#f5ebcd"/></g></svg>